<svg width="20" height="20" viewBox="0 0 20 20" fill="none" xmlns="http://www.w3.org/2000/svg">
<path d="M17.0711 2.92891C15.1823 1.0402 12.6711 0 10 0C7.32887 0 4.81762 1.0402 2.92891 2.92891C1.04016 4.81766 0 7.32891 0 10C0 12.6711 1.04016 15.1823 2.92891 17.0711C4.81766 18.9598 7.32887 20 10 20C12.6711 20 15.1823 18.9598 17.0711 17.0711C18.9598 15.1823 20 12.6711 20 10C20 7.32891 18.9598 4.8177 17.0711 2.92891ZM10 18.8281C5.13215 18.8281 1.17188 14.8679 1.17188 10C1.17188 5.13215 5.13215 1.17188 10 1.17188C14.8679 1.17188 18.8281 5.13215 18.8281 10C18.8281 14.8679 14.8679 18.8281 10 18.8281Z" fill="#31FF10"/>
<path d="M14.7775 6.79143C14.5487 6.56268 14.1777 6.56268 13.9489 6.79147L8.77474 11.9656L6.05103 9.24193C5.82224 9.01314 5.45123 9.01314 5.2224 9.24193C4.99357 9.47072 4.99357 9.84174 5.2224 10.0706L8.36041 13.2086C8.47482 13.323 8.62478 13.3802 8.7747 13.3802C8.92462 13.3802 9.07462 13.3229 9.189 13.2086L14.7775 7.62006C15.0063 7.39127 15.0063 7.02026 14.7775 6.79143Z" fill="#31FF10"/>
</svg>
