<svg width="20" height="20" viewBox="0 0 20 20" fill="none" xmlns="http://www.w3.org/2000/svg">
<path d="M19.998 16.1153C19.9701 15.3417 19.6479 14.6197 19.0906 14.0824C17.9996 13.0303 17.0855 12.423 16.2138 12.1711C15.0128 11.824 13.9003 12.1396 12.9075 13.1092C12.906 13.1107 12.9046 13.1122 12.9031 13.1136L11.8468 14.162C11.1867 13.7899 9.90311 12.9729 8.51632 11.5861L8.4135 11.4833C7.02647 10.0963 6.20948 8.81251 5.83772 8.15314L6.88616 7.09685C6.88764 7.09537 6.88913 7.09388 6.89061 7.09236C7.86018 6.09962 8.17581 4.9872 7.82874 3.78607C7.57682 2.91447 6.96952 2.00033 5.91741 0.909277C5.38014 0.352129 4.65823 0.0298631 3.8846 0.00197251C3.1105 -0.0259572 2.36769 0.243496 1.79159 0.760605L1.76917 0.780761C1.75878 0.790097 1.74862 0.799746 1.7387 0.809628C0.591866 1.95646 -0.00930517 3.56197 0.00010889 5.45263C0.0161636 8.66443 1.78136 12.3374 4.72194 15.2779C5.27643 15.8324 5.90663 16.3812 6.59499 16.909C6.93737 17.1715 7.42776 17.1068 7.6903 16.7644C7.95288 16.422 7.88811 15.9316 7.54569 15.669C6.91151 15.1827 6.33319 14.6795 5.82679 14.1732C3.17069 11.5171 1.57659 8.25419 1.56257 5.44486C1.55534 3.98877 1.99335 2.77342 2.8294 1.92865L2.83538 1.92326C3.40323 1.41353 4.26296 1.44455 4.79272 1.99389C6.81534 4.09146 6.66889 5.08174 5.77514 5.99822L4.32694 7.45728C4.09983 7.68611 4.03659 8.03095 4.16772 8.32548C4.20448 8.40806 5.09389 10.3734 7.30893 12.5884L7.41178 12.6911C9.62655 14.9059 11.5919 15.7953 11.6745 15.8321C11.969 15.9633 12.3139 15.9 12.5427 15.6729L14.0018 14.2247C14.9184 13.3309 15.9087 13.1845 18.0061 15.2071C18.5555 15.7368 18.5865 16.5966 18.0769 17.1643L18.0713 17.1705C17.2335 17.9997 16.031 18.4374 14.5908 18.4374C14.5789 18.4374 14.5671 18.4374 14.5551 18.4373C13.4039 18.4316 12.0708 18.116 10.7001 17.5247C10.304 17.3538 9.8442 17.5365 9.67335 17.9327C9.50245 18.3289 9.68506 18.7886 10.0813 18.9595C11.6657 19.6429 13.1683 19.9929 14.5474 19.9998C14.562 19.9999 14.5765 19.9999 14.5912 19.9999C16.4628 19.9999 18.0524 19.3991 19.1904 18.2612C19.2003 18.2513 19.2099 18.2412 19.2192 18.2308L19.2395 18.2082C19.7565 17.6322 20.026 16.8889 19.998 16.1153Z" fill="#00EFFF"/>
</svg>
